<svg xmlns="http://www.w3.org/2000/svg" viewBox="0 0 1600 1200" width="1600" height="1200" role="img" preserveAspectRatio="xMidYMid slice"><defs><linearGradient id="g11" x1="0" y1="0" x2="0.6" y2="1"><stop offset="0" stop-color="#6b6152"/><stop offset="0.55" stop-color="#4a4236"/><stop offset="1" stop-color="#2b2720"/></linearGradient><radialGradient id="v11" cx="0.5" cy="0.4" r="0.75"><stop offset="0.45" stop-color="#000000" stop-opacity="0"/><stop offset="1" stop-color="#000000" stop-opacity="0.55"/></radialGradient><filter id="b11"><feGaussianBlur stdDeviation="34"/></filter></defs><rect width="1600" height="1200" fill="url(#g11)"/><g filter="url(#b11)"><ellipse cx="775" cy="691" rx="286" ry="257" fill="#7a7160" opacity="0.41" transform="rotate(1 775 691)"/><ellipse cx="856" cy="762" rx="261" ry="172" fill="#8d8371" opacity="0.54" transform="rotate(-18 856 762)"/><ellipse cx="1371" cy="767" rx="223" ry="241" fill="#7a7160" opacity="0.57" transform="rotate(-4 1371 767)"/><ellipse cx="1291" cy="184" rx="117" ry="352" fill="#645b4c" opacity="0.46" transform="rotate(9 1291 184)"/><ellipse cx="964" cy="319" rx="154" ry="218" fill="#8d8371" opacity="0.51" transform="rotate(-45 964 319)"/><ellipse cx="538" cy="1138" rx="299" ry="343" fill="#a39684" opacity="0.62" transform="rotate(19 538 1138)"/><ellipse cx="858" cy="150" rx="217" ry="175" fill="#a39684" opacity="0.49" transform="rotate(-35 858 150)"/><path d="M1386 1200 C 1346 720, 1446 540, 1396 240" stroke="#6e6554" stroke-width="14" fill="none" opacity="0.5"/><path d="M1245 1200 C 1205 720, 1305 540, 1255 240" stroke="#6e6554" stroke-width="14" fill="none" opacity="0.5"/><path d="M161 1200 C 121 720, 221 540, 171 240" stroke="#6e6554" stroke-width="14" fill="none" opacity="0.5"/><path d="M428 1200 C 388 720, 488 540, 438 240" stroke="#6e6554" stroke-width="14" fill="none" opacity="0.5"/></g><circle cx="724" cy="672" r="112" fill="#ffffff" opacity="0.035"/><circle cx="745" cy="609" r="79" fill="#ffffff" opacity="0.035"/><circle cx="295" cy="614" r="83" fill="#ffffff" opacity="0.035"/><circle cx="1269" cy="113" r="50" fill="#ffffff" opacity="0.035"/><circle cx="145" cy="972" r="89" fill="#ffffff" opacity="0.035"/><circle cx="67" cy="1179" r="116" fill="#ffffff" opacity="0.035"/><circle cx="1046" cy="739" r="36" fill="#ffffff" opacity="0.035"/><circle cx="24" cy="634" r="26" fill="#ffffff" opacity="0.035"/><circle cx="304" cy="290" r="23" fill="#ffffff" opacity="0.035"/><circle cx="742" cy="529" r="104" fill="#ffffff" opacity="0.035"/><circle cx="831" cy="768" r="70" fill="#ffffff" opacity="0.035"/><circle cx="1060" cy="549" r="48" fill="#ffffff" opacity="0.035"/><circle cx="1596" cy="1195" r="104" fill="#ffffff" opacity="0.035"/><circle cx="1132" cy="378" r="43" fill="#ffffff" opacity="0.035"/><circle cx="462" cy="84" r="97" fill="#ffffff" opacity="0.035"/><circle cx="641" cy="1016" r="59" fill="#ffffff" opacity="0.035"/><circle cx="1533" cy="1017" r="20" fill="#ffffff" opacity="0.035"/><circle cx="336" cy="1092" r="67" fill="#ffffff" opacity="0.035"/><circle cx="1569" cy="477" r="27" fill="#ffffff" opacity="0.035"/><circle cx="1007" cy="934" r="47" fill="#ffffff" opacity="0.035"/><circle cx="139" cy="399" r="116" fill="#ffffff" opacity="0.035"/><circle cx="1213" cy="142" r="45" fill="#ffffff" opacity="0.035"/><circle cx="162" cy="72" r="100" fill="#ffffff" opacity="0.035"/><circle cx="284" cy="671" r="65" fill="#ffffff" opacity="0.035"/><circle cx="305" cy="878" r="33" fill="#ffffff" opacity="0.035"/><circle cx="1030" cy="140" r="62" fill="#ffffff" opacity="0.035"/><circle cx="341" cy="324" r="117" fill="#ffffff" opacity="0.035"/><circle cx="1285" cy="365" r="108" fill="#ffffff" opacity="0.035"/><circle cx="337" cy="473" r="105" fill="#ffffff" opacity="0.035"/><circle cx="1027" cy="120" r="119" fill="#ffffff" opacity="0.035"/><circle cx="341" cy="310" r="97" fill="#ffffff" opacity="0.035"/><circle cx="526" cy="356" r="27" fill="#ffffff" opacity="0.035"/><circle cx="144" cy="699" r="44" fill="#ffffff" opacity="0.035"/><circle cx="962" cy="446" r="65" fill="#ffffff" opacity="0.035"/><circle cx="1535" cy="580" r="77" fill="#ffffff" opacity="0.035"/><circle cx="1386" cy="219" r="35" fill="#ffffff" opacity="0.035"/><circle cx="1453" cy="981" r="45" fill="#ffffff" opacity="0.035"/><circle cx="304" cy="887" r="114" fill="#ffffff" opacity="0.035"/><circle cx="315" cy="1140" r="108" fill="#ffffff" opacity="0.035"/><circle cx="966" cy="506" r="30" fill="#ffffff" opacity="0.035"/><circle cx="62" cy="1155" r="44" fill="#ffffff" opacity="0.035"/><circle cx="1127" cy="308" r="102" fill="#ffffff" opacity="0.035"/><circle cx="954" cy="352" r="38" fill="#ffffff" opacity="0.035"/><circle cx="1153" cy="83" r="43" fill="#ffffff" opacity="0.035"/><circle cx="895" cy="1023" r="81" fill="#ffffff" opacity="0.035"/><circle cx="448" cy="1101" r="40" fill="#ffffff" opacity="0.035"/><circle cx="27" cy="323" r="65" fill="#ffffff" opacity="0.035"/><circle cx="97" cy="212" r="57" fill="#ffffff" opacity="0.035"/><circle cx="915" cy="158" r="56" fill="#ffffff" opacity="0.035"/><circle cx="1426" cy="1177" r="86" fill="#ffffff" opacity="0.035"/><circle cx="1106" cy="701" r="34" fill="#ffffff" opacity="0.035"/><circle cx="56" cy="21" r="111" fill="#ffffff" opacity="0.035"/><circle cx="1122" cy="1155" r="22" fill="#ffffff" opacity="0.035"/><circle cx="1018" cy="579" r="93" fill="#ffffff" opacity="0.035"/><circle cx="510" cy="1199" r="28" fill="#ffffff" opacity="0.035"/><circle cx="874" cy="884" r="110" fill="#ffffff" opacity="0.035"/><circle cx="1179" cy="844" r="99" fill="#ffffff" opacity="0.035"/><circle cx="1464" cy="422" r="89" fill="#ffffff" opacity="0.035"/><circle cx="1441" cy="1045" r="62" fill="#ffffff" opacity="0.035"/><circle cx="1265" cy="1036" r="77" fill="#ffffff" opacity="0.035"/><rect width="1600" height="1200" fill="url(#v11)"/></svg>