<svg xmlns="http://www.w3.org/2000/svg" viewBox="0 0 640 760" width="640" height="760" role="img" preserveAspectRatio="xMidYMid slice"><defs><linearGradient id="p71" x1="0" y1="0" x2="0.4" y2="1"><stop offset="0" stop-color="#cfc7b5"/><stop offset="1" stop-color="#9c937f"/></linearGradient></defs><rect width="640" height="760" fill="url(#p71)"/><ellipse cx="207" cy="471" rx="81" ry="277" fill="#b5ab95" opacity="0.46"/><ellipse cx="639" cy="200" rx="108" ry="129" fill="#b5ab95" opacity="0.30"/><ellipse cx="15" cy="526" rx="131" ry="250" fill="#b5ab95" opacity="0.44"/><ellipse cx="224" cy="127" rx="129" ry="125" fill="#b5ab95" opacity="0.41"/><ellipse cx="121" cy="113" rx="204" ry="190" fill="#b5ab95" opacity="0.49"/><ellipse cx="627" cy="505" rx="115" ry="144" fill="#b5ab95" opacity="0.31"/><circle cx="207" cy="471" r="21" fill="#ffffff" opacity="0.060"/><circle cx="629" cy="625" r="120" fill="#ffffff" opacity="0.060"/><circle cx="169" cy="152" r="25" fill="#ffffff" opacity="0.060"/><circle cx="124" cy="18" r="89" fill="#ffffff" opacity="0.060"/><circle cx="234" cy="620" r="96" fill="#ffffff" opacity="0.060"/><circle cx="224" cy="127" r="55" fill="#ffffff" opacity="0.060"/><circle cx="19" cy="493" r="39" fill="#ffffff" opacity="0.060"/><circle cx="95" cy="675" r="64" fill="#ffffff" opacity="0.060"/><circle cx="605" cy="745" r="86" fill="#ffffff" opacity="0.060"/><circle cx="160" cy="112" r="45" fill="#ffffff" opacity="0.060"/><circle cx="471" cy="389" r="50" fill="#ffffff" opacity="0.060"/><circle cx="11" cy="267" r="59" fill="#ffffff" opacity="0.060"/><circle cx="44" cy="190" r="50" fill="#ffffff" opacity="0.060"/><circle cx="266" cy="375" r="77" fill="#ffffff" opacity="0.060"/><circle cx="544" cy="224" r="29" fill="#ffffff" opacity="0.060"/><circle cx="194" cy="164" r="78" fill="#ffffff" opacity="0.060"/><circle cx="305" cy="244" r="29" fill="#ffffff" opacity="0.060"/><circle cx="481" cy="474" r="82" fill="#ffffff" opacity="0.060"/><circle cx="450" cy="650" r="24" fill="#ffffff" opacity="0.060"/><circle cx="121" cy="358" r="90" fill="#ffffff" opacity="0.060"/><circle cx="323" cy="384" r="51" fill="#ffffff" opacity="0.060"/><circle cx="156" cy="664" r="118" fill="#ffffff" opacity="0.060"/><circle cx="320" cy="355" r="33" fill="#ffffff" opacity="0.060"/><circle cx="385" cy="161" r="83" fill="#ffffff" opacity="0.060"/><circle cx="178" cy="355" r="107" fill="#ffffff" opacity="0.060"/><circle cx="200" cy="407" r="52" fill="#ffffff" opacity="0.060"/><circle cx="311" cy="659" r="69" fill="#ffffff" opacity="0.060"/><circle cx="617" cy="310" r="65" fill="#ffffff" opacity="0.060"/><circle cx="413" cy="381" r="87" fill="#ffffff" opacity="0.060"/><circle cx="186" cy="10" r="62" fill="#ffffff" opacity="0.060"/><circle cx="41" cy="189" r="80" fill="#ffffff" opacity="0.060"/><circle cx="442" cy="692" r="88" fill="#ffffff" opacity="0.060"/><circle cx="355" cy="262" r="68" fill="#ffffff" opacity="0.060"/><circle cx="184" cy="78" r="73" fill="#ffffff" opacity="0.060"/><circle cx="404" cy="234" r="94" fill="#ffffff" opacity="0.060"/><circle cx="339" cy="235" r="105" fill="#ffffff" opacity="0.060"/><circle cx="14" cy="204" r="52" fill="#ffffff" opacity="0.060"/><circle cx="431" cy="192" r="118" fill="#ffffff" opacity="0.060"/><circle cx="67" cy="342" r="67" fill="#ffffff" opacity="0.060"/><circle cx="476" cy="193" r="36" fill="#ffffff" opacity="0.060"/><text x="320.0" y="380.0" text-anchor="middle" dominant-baseline="middle" font-family="Georgia,serif" font-size="34" fill="#4E5139" opacity="0.55" letter-spacing="4">STATE STREET</text></svg>